<svg width="24" height="24" viewBox="0 0 24 24" fill="none" xmlns="http://www.w3.org/2000/svg">
<path fill-rule="evenodd" clip-rule="evenodd" d="M18 4H6C4.89543 4 4 4.89543 4 6V18C4 19.1046 4.89543 20 6 20H18C19.1046 20 20 19.1046 20 18V6C20 4.89543 19.1046 4 18 4ZM6 2C3.79086 2 2 3.79086 2 6V18C2 20.2091 3.79086 22 6 22H18C20.2091 22 22 20.2091 22 18V6C22 3.79086 20.2091 2 18 2H6Z" fill="#F06000"/>
<path d="M10.5356 14.9689C10.4137 14.9181 10.3031 14.8438 10.2102 14.75L8.29019 12.83C8.10188 12.6417 7.99609 12.3863 7.99609 12.12C7.99609 11.8537 8.10188 11.5983 8.29019 11.41C8.47849 11.2217 8.73388 11.1159 9.00019 11.1159C9.26649 11.1159 9.52188 11.2217 9.71019 11.41L10.9202 12.63L14.2902 9.25002C14.4785 9.06172 14.7339 8.95593 15.0002 8.95593C15.2665 8.95593 15.5219 9.06172 15.7102 9.25002C15.8985 9.43833 16.0043 9.69372 16.0043 9.96002C16.0043 10.2263 15.8985 10.4817 15.7102 10.67L11.6302 14.75C11.5372 14.8438 11.4266 14.9181 11.3048 14.9689C11.1829 15.0197 11.0522 15.0458 10.9202 15.0458C10.7882 15.0458 10.6575 15.0197 10.5356 14.9689Z" fill="#F06000"/>
</svg>
