<svg width="21" height="17" viewBox="0 0 21 17" fill="none" xmlns="http://www.w3.org/2000/svg">
<path d="M20.4899 6.19008L19.4899 5.64008L10.4899 0.640078H10.3799C10.3186 0.614157 10.255 0.594068 10.1899 0.580078H9.99988H9.81988C9.75156 0.594077 9.68462 0.614157 9.61988 0.640078H9.50988L0.509878 5.64008C0.35598 5.7273 0.227972 5.85378 0.138912 6.00662C0.0498528 6.15946 0.00292969 6.33318 0.00292969 6.51008C0.00292969 6.68697 0.0498528 6.8607 0.138912 7.01354C0.227972 7.16638 0.35598 7.29286 0.509878 7.38008L2.99988 8.76008V13.5001C2.99988 14.2957 3.31595 15.0588 3.87856 15.6214C4.44117 16.184 5.20423 16.5001 5.99988 16.5001H13.9999C14.7955 16.5001 15.5586 16.184 16.1212 15.6214C16.6838 15.0588 16.9999 14.2957 16.9999 13.5001V8.76008L18.9999 7.64008V10.5001C18.9999 10.7653 19.1052 11.0196 19.2928 11.2072C19.4803 11.3947 19.7347 11.5001 19.9999 11.5001C20.2651 11.5001 20.5194 11.3947 20.707 11.2072C20.8945 11.0196 20.9999 10.7653 20.9999 10.5001V7.06008C20.9996 6.88288 20.9522 6.70895 20.8626 6.55608C20.773 6.40321 20.6443 6.2769 20.4899 6.19008ZM14.9999 13.5001C14.9999 13.7653 14.8945 14.0196 14.707 14.2072C14.5194 14.3947 14.2651 14.5001 13.9999 14.5001H5.99988C5.73466 14.5001 5.48031 14.3947 5.29277 14.2072C5.10524 14.0196 4.99988 13.7653 4.99988 13.5001V9.87008L9.50988 12.3701L9.65988 12.4301H9.74988C9.83288 12.4405 9.91687 12.4405 9.99988 12.4301C10.0829 12.4405 10.1669 12.4405 10.2499 12.4301H10.3399C10.393 12.4189 10.4437 12.3986 10.4899 12.3701L14.9999 9.87008V13.5001ZM9.99988 10.3601L3.05988 6.50008L9.99988 2.64008L16.9399 6.50008L9.99988 10.3601Z" fill="#F06000"/>
</svg>
