<svg width="18" height="20" viewBox="0 0 18 20" fill="none" xmlns="http://www.w3.org/2000/svg">
<path d="M16.0802 10.4202L9.90016 16.6102C9.08998 17.3302 8.03531 17.7135 6.95188 17.6816C5.86846 17.6497 4.83816 17.2051 4.07173 16.4386C3.30531 15.6722 2.86067 14.6419 2.82878 13.5585C2.79688 12.4751 3.18014 11.4204 3.90016 10.6102L11.9002 2.61021C12.3778 2.15651 13.0114 1.90354 13.6702 1.90354C14.3289 1.90354 14.9625 2.15651 15.4402 2.61021C15.9055 3.0818 16.1664 3.71768 16.1664 4.38021C16.1664 5.04274 15.9055 5.67862 15.4402 6.15021L8.54016 13.0402C8.47187 13.1138 8.38977 13.1731 8.29854 13.2149C8.2073 13.2567 8.10873 13.2802 8.00844 13.2839C7.90816 13.2876 7.80812 13.2715 7.71405 13.2366C7.61997 13.2016 7.5337 13.1485 7.46016 13.0802C7.38662 13.0119 7.32725 12.9298 7.28544 12.8386C7.24363 12.7474 7.2202 12.6488 7.21648 12.5485C7.21277 12.4482 7.22885 12.3482 7.26379 12.2541C7.29874 12.16 7.35187 12.0738 7.42016 12.0002L12.5502 6.88021C12.7385 6.69191 12.8443 6.43651 12.8443 6.17021C12.8443 5.90391 12.7385 5.64852 12.5502 5.46021C12.3619 5.27191 12.1065 5.16612 11.8402 5.16612C11.5739 5.16612 11.3185 5.27191 11.1302 5.46021L6.00016 10.6002C5.74346 10.8549 5.53973 11.1579 5.40069 11.4917C5.26166 11.8256 5.19008 12.1836 5.19008 12.5452C5.19008 12.9068 5.26166 13.2649 5.40069 13.5987C5.53973 13.9325 5.74346 14.2355 6.00016 14.4902C6.52453 14.9897 7.22097 15.2683 7.94516 15.2683C8.66935 15.2683 9.36579 14.9897 9.89016 14.4902L16.7802 7.59021C17.575 6.73716 18.0078 5.60888 17.9872 4.44308C17.9666 3.27727 17.4944 2.16496 16.6699 1.34048C15.8454 0.516003 14.7331 0.0437313 13.5673 0.023162C12.4015 0.00259272 11.2732 0.435332 10.4202 1.23021L2.42016 9.23021C1.34136 10.425 0.765188 11.9901 0.811693 13.5992C0.858198 15.2083 1.52379 16.7374 2.6698 17.868C3.8158 18.9985 5.35384 19.6433 6.96344 19.6679C8.57305 19.6925 10.1301 19.0951 11.3102 18.0002L17.5002 11.8202C17.5934 11.727 17.6674 11.6163 17.7178 11.4945C17.7683 11.3726 17.7943 11.2421 17.7943 11.1102C17.7943 10.9784 17.7683 10.8478 17.7178 10.726C17.6674 10.6041 17.5934 10.4935 17.5002 10.4002C17.4069 10.307 17.2962 10.233 17.1744 10.1826C17.0526 10.1321 16.922 10.1061 16.7902 10.1061C16.6583 10.1061 16.5277 10.1321 16.4059 10.1826C16.2841 10.233 16.1734 10.307 16.0802 10.4002V10.4202Z" fill="#FF6600"/>
</svg>
