<svg width="22" height="22" viewBox="0 0 22 22" fill="none" xmlns="http://www.w3.org/2000/svg">
<path d="M20.1701 1.06012C19.4533 0.936655 18.7274 0.873102 18.0001 0.870122C15.5184 0.868087 13.0886 1.57969 11.0001 2.92012C8.90623 1.59729 6.47674 0.903152 4.00008 0.920121C3.27273 0.923102 2.54689 0.986655 1.83008 1.11012C1.59529 1.1506 1.38267 1.27358 1.2305 1.45691C1.07833 1.64025 0.996621 1.87189 1.00008 2.11012V14.1101C0.997943 14.2571 1.02821 14.4027 1.08873 14.5366C1.14926 14.6705 1.23855 14.7894 1.35026 14.8849C1.46197 14.9803 1.59334 15.05 1.73504 15.089C1.87674 15.1279 2.02528 15.1351 2.17008 15.1101C3.6031 14.862 5.07129 14.9032 6.48815 15.2312C7.90501 15.5592 9.24191 16.1675 10.4201 17.0201L10.5401 17.0901H10.6501C10.761 17.1363 10.8799 17.1601 11.0001 17.1601C11.1202 17.1601 11.2392 17.1363 11.3501 17.0901H11.4601L11.5801 17.0201C12.75 16.1484 14.0831 15.5205 15.5002 15.1735C16.9174 14.8265 18.3897 14.7675 19.8301 15.0001C19.9749 15.0251 20.1234 15.0179 20.2651 14.979C20.4068 14.94 20.5382 14.8703 20.6499 14.7749C20.7616 14.6794 20.8509 14.5605 20.9114 14.4266C20.972 14.2927 21.0022 14.1471 21.0001 14.0001V2.00012C20.9897 1.77228 20.9017 1.55483 20.7507 1.38386C20.5998 1.21289 20.3949 1.09866 20.1701 1.06012ZM10.0001 14.3501C8.14997 13.3768 6.0906 12.8688 4.00008 12.8701C3.67008 12.8701 3.34008 12.8701 3.00008 12.8701V2.87012C3.33314 2.85093 3.66703 2.85093 4.00008 2.87012C6.13347 2.86776 8.2203 3.49381 10.0001 4.67012V14.3501ZM19.0001 12.9101C18.6601 12.9101 18.3301 12.9101 18.0001 12.9101C15.9096 12.9088 13.8502 13.4168 12.0001 14.3901V4.67012C13.7799 3.49381 15.8667 2.86776 18.0001 2.87012C18.3331 2.85093 18.667 2.85093 19.0001 2.87012V12.9101ZM20.1701 17.0601C19.4533 16.9367 18.7274 16.8731 18.0001 16.8701C15.5184 16.8681 13.0886 17.5797 11.0001 18.9201C8.9116 17.5797 6.48172 16.8681 4.00008 16.8701C3.27273 16.8731 2.54689 16.9367 1.83008 17.0601C1.69991 17.0808 1.57511 17.127 1.46285 17.196C1.35059 17.2651 1.25309 17.3557 1.17595 17.4625C1.09882 17.5694 1.04357 17.6905 1.01339 17.8188C0.983207 17.9471 0.978686 18.0801 1.00008 18.2101C1.0509 18.4698 1.20257 18.6988 1.42188 18.8468C1.64118 18.9949 1.91022 19.05 2.17008 19.0001C3.6031 18.752 5.07129 18.7932 6.48815 19.1212C7.90501 19.4492 9.24191 20.0575 10.4201 20.9101C10.5894 21.0307 10.7922 21.0955 11.0001 21.0955C11.208 21.0955 11.4107 21.0307 11.5801 20.9101C12.7583 20.0575 14.0952 19.4492 15.512 19.1212C16.9289 18.7932 18.3971 18.752 19.8301 19.0001C20.0899 19.05 20.359 18.9949 20.5783 18.8468C20.7976 18.6988 20.9493 18.4698 21.0001 18.2101C21.0215 18.0801 21.017 17.9471 20.9868 17.8188C20.9566 17.6905 20.9014 17.5694 20.8242 17.4625C20.7471 17.3557 20.6496 17.2651 20.5373 17.196C20.4251 17.127 20.3003 17.0808 20.1701 17.0601Z" fill="#212329"/>
</svg>
