<svg width="20" height="21" viewBox="0 0 20 21" fill="none" xmlns="http://www.w3.org/2000/svg">
<path d="M19.3798 3.75992C19.3457 3.63223 19.2866 3.51257 19.2059 3.40786C19.1252 3.30316 19.0246 3.21549 18.9098 3.14992L13.7098 0.149918C13.5963 0.0833856 13.4708 0.0399166 13.3404 0.0220034C13.21 0.00409026 13.0774 0.012085 12.9501 0.0455294C12.8228 0.0789738 12.7034 0.13721 12.5987 0.2169C12.494 0.296589 12.406 0.396165 12.3398 0.509918L9.99985 4.56992L7.65985 0.509918C7.59369 0.396165 7.50572 0.296589 7.401 0.2169C7.29628 0.13721 7.17685 0.0789738 7.04958 0.0455294C6.92231 0.012085 6.78968 0.00409026 6.65931 0.0220034C6.52894 0.0399166 6.40339 0.0833856 6.28985 0.149918L1.08985 3.14992C0.975081 3.21549 0.874451 3.30316 0.793778 3.40786C0.713105 3.51257 0.653989 3.63223 0.619849 3.75992C0.553666 4.01337 0.589573 4.28266 0.71985 4.50992L4.71985 11.3399C4.2736 12.1575 4.02689 13.0689 3.99985 13.9999C3.99747 14.9082 4.20133 15.8052 4.59607 16.6232C4.9908 17.4412 5.56611 18.159 6.27861 18.7223C6.9911 19.2856 7.8222 19.6798 8.70922 19.8752C9.59625 20.0706 10.5161 20.062 11.3993 19.8502C12.2825 19.6383 13.1061 19.2287 13.808 18.6522C14.5099 18.0757 15.0718 17.3474 15.4512 16.5222C15.8306 15.6969 16.0178 14.7963 15.9985 13.8882C15.9792 12.9801 15.754 12.0883 15.3398 11.2799L19.2398 4.51992C19.3124 4.40886 19.3622 4.28447 19.3862 4.15399C19.4103 4.02351 19.4081 3.88955 19.3798 3.75992ZM2.99985 4.37992L6.45985 2.37992L9.67985 7.99992C8.30727 8.08472 7.00664 8.64314 5.99985 9.57992L2.99985 4.37992ZM9.99985 17.9999C8.93898 17.9999 7.92157 17.5785 7.17142 16.8283C6.42128 16.0782 5.99985 15.0608 5.99985 13.9999C5.99985 12.9391 6.42128 11.9216 7.17142 11.1715C7.92157 10.4213 8.93898 9.99992 9.99985 9.99992C11.0607 9.99992 12.0781 10.4213 12.8283 11.1715C13.5784 11.9216 13.9998 12.9391 13.9998 13.9999C13.9998 15.0608 13.5784 16.0782 12.8283 16.8283C12.0781 17.5785 11.0607 17.9999 9.99985 17.9999ZM13.9998 9.54992C13.4569 9.05403 12.8261 8.664 12.1398 8.39992L11.1598 6.56992L13.5798 2.37992L17.0399 4.37992L13.9998 9.54992Z" fill="#212329"/>
</svg>
