<svg width="20" height="21" viewBox="0 0 20 21" fill="none" xmlns="http://www.w3.org/2000/svg">
<path d="M19 17.0002H17V14.0002C17 13.735 16.8946 13.4806 16.7071 13.2931C16.5196 13.1056 16.2652 13.0002 16 13.0002H11V10.2902L12.13 10.8802C12.2948 10.9664 12.4804 11.005 12.6658 10.9915C12.8513 10.9781 13.0294 10.9131 13.18 10.8041C13.3307 10.695 13.4479 10.5461 13.5185 10.374C13.5892 10.202 13.6105 10.0137 13.58 9.8302L13.18 7.4602L14.9 5.7702C15.0303 5.64299 15.1233 5.48261 15.1692 5.30639C15.215 5.13016 15.2118 4.94476 15.16 4.7702C15.102 4.59248 14.9954 4.43456 14.8522 4.31436C14.7091 4.19417 14.5351 4.11651 14.35 4.0902L12 3.7202L10.9 1.5602C10.8181 1.39113 10.6903 1.24855 10.5311 1.14878C10.3719 1.04901 10.1879 0.996094 10 0.996094C9.81214 0.996094 9.62809 1.04901 9.46891 1.14878C9.30974 1.24855 9.18188 1.39113 9.1 1.5602L8 3.7202L5.61 4.0702C5.42492 4.09651 5.25092 4.17417 5.10775 4.29436C4.96458 4.41456 4.85796 4.57248 4.8 4.7502C4.74819 4.92476 4.74502 5.11016 4.79084 5.28639C4.83666 5.46261 4.92973 5.62299 5.06 5.7502L6.82 7.4602L6.42 9.8302C6.38952 10.0137 6.4108 10.202 6.48145 10.374C6.5521 10.5461 6.66933 10.695 6.81996 10.8041C6.9706 10.9131 7.14866 10.9781 7.33415 10.9915C7.51964 11.005 7.70521 10.9664 7.87 10.8802L9 10.2902V13.0002H4C3.73478 13.0002 3.48043 13.1056 3.29289 13.2931C3.10536 13.4806 3 13.735 3 14.0002V17.0002H1C0.734784 17.0002 0.48043 17.1056 0.292893 17.2931C0.105357 17.4806 0 17.735 0 18.0002V20.0002C0 20.2654 0.105357 20.5198 0.292893 20.7073C0.48043 20.8948 0.734784 21.0002 1 21.0002C1.26522 21.0002 1.51957 20.8948 1.70711 20.7073C1.89464 20.5198 2 20.2654 2 20.0002V19.0002H6V20.0002C6 20.2654 6.10536 20.5198 6.29289 20.7073C6.48043 20.8948 6.73478 21.0002 7 21.0002C7.26522 21.0002 7.51957 20.8948 7.70711 20.7073C7.89464 20.5198 8 20.2654 8 20.0002V18.0002C8 17.735 7.89464 17.4806 7.70711 17.2931C7.51957 17.1056 7.26522 17.0002 7 17.0002H5V15.0002H15V17.0002H13C12.7348 17.0002 12.4804 17.1056 12.2929 17.2931C12.1054 17.4806 12 17.735 12 18.0002V20.0002C12 20.2654 12.1054 20.5198 12.2929 20.7073C12.4804 20.8948 12.7348 21.0002 13 21.0002C13.2652 21.0002 13.5196 20.8948 13.7071 20.7073C13.8946 20.5198 14 20.2654 14 20.0002V19.0002H18V20.0002C18 20.2654 18.1054 20.5198 18.2929 20.7073C18.4804 20.8948 18.7348 21.0002 19 21.0002C19.2652 21.0002 19.5196 20.8948 19.7071 20.7073C19.8946 20.5198 20 20.2654 20 20.0002V18.0002C20 17.735 19.8946 17.4806 19.7071 17.2931C19.5196 17.1056 19.2652 17.0002 19 17.0002ZM10 7.6302C9.83586 7.63102 9.67444 7.67224 9.53 7.7502L8.73 8.1702L8.88 7.2702C8.90624 7.11101 8.89357 6.94783 8.84307 6.79459C8.79257 6.64135 8.70574 6.50261 8.59 6.3902L7.94 5.7502L8.84 5.6202C9.00101 5.59869 9.15436 5.53828 9.28678 5.44419C9.4192 5.3501 9.52671 5.22517 9.6 5.0802L10 4.2602L10.4 5.0802C10.4733 5.22517 10.5808 5.3501 10.7132 5.44419C10.8456 5.53828 10.999 5.59869 11.16 5.6202L12.06 5.7502L11.41 6.3902C11.2943 6.50261 11.2074 6.64135 11.1569 6.79459C11.1064 6.94783 11.0938 7.11101 11.12 7.2702L11.27 8.1702L10.47 7.7502C10.3256 7.67224 10.1641 7.63102 10 7.6302Z" fill="#212329"/>
</svg>
